<?xml version="1.0" encoding="UTF-8"?>
<!DOCTYPE svg PUBLIC "-//W3C//DTD SVG 1.1//EN" "http://www.w3.org/Graphics/SVG/1.1/DTD/svg11.dtd">
<!-- Creator: CorelDRAW 2017 -->
<svg xmlns="http://www.w3.org/2000/svg" xml:space="preserve" width="36.516mm" height="31.377mm" version="1.1" style="shape-rendering:geometricPrecision; text-rendering:geometricPrecision; image-rendering:optimizeQuality; fill-rule:evenodd; clip-rule:evenodd"
viewBox="0 0 3651.6 3137.7"
 xmlns:xlink="http://www.w3.org/1999/xlink">
 <defs>
  <style type="text/css">
   <![CDATA[
    .str0 {stroke:#63A1B5;stroke-width:64.99;stroke-linecap:round;stroke-linejoin:round;stroke-miterlimit:22.9256;stroke-dasharray:64.990000 129.980000}
    .fil18 {fill:none;fill-rule:nonzero}
    .fil1 {fill:#167390;fill-rule:nonzero}
    .fil0 {fill:#2B2A29;fill-rule:nonzero}
    .fil8 {fill:url(#id0)}
    .fil16 {fill:url(#id1)}
    .fil10 {fill:url(#id2)}
    .fil14 {fill:url(#id3)}
    .fil6 {fill:url(#id4)}
    .fil12 {fill:url(#id5)}
    .fil2 {fill:url(#id6);fill-rule:nonzero}
    .fil5 {fill:url(#id7);fill-rule:nonzero}
    .fil15 {fill:url(#id8);fill-rule:nonzero}
    .fil4 {fill:url(#id9);fill-rule:nonzero}
    .fil3 {fill:url(#id10);fill-rule:nonzero}
    .fil17 {fill:url(#id11);fill-rule:nonzero}
    .fil13 {fill:url(#id12);fill-rule:nonzero}
    .fil11 {fill:url(#id13);fill-rule:nonzero}
    .fil9 {fill:url(#id14);fill-rule:nonzero}
    .fil7 {fill:url(#id15);fill-rule:nonzero}
   ]]>
  </style>
  <linearGradient id="id0" gradientUnits="userSpaceOnUse" x1="2954.42" y1="2342.12" x2="2954.42" y2="1629.12">
   <stop offset="0" style="stop-opacity:1; stop-color:#FFA20B"/>
   <stop offset="1" style="stop-opacity:1; stop-color:#F86E21"/>
  </linearGradient>
  <linearGradient id="id1" gradientUnits="userSpaceOnUse" xlink:href="#id0" x1="354.44" y1="1918.12" x2="354.44" y2="1353.13">
  </linearGradient>
  <linearGradient id="id2" gradientUnits="userSpaceOnUse" xlink:href="#id0" x1="3380.3" y1="1918.12" x2="3380.3" y2="1353.13">
  </linearGradient>
  <linearGradient id="id3" gradientUnits="userSpaceOnUse" xlink:href="#id0" x1="802.22" y1="2342.12" x2="802.22" y2="1629.12">
  </linearGradient>
  <linearGradient id="id4" gradientUnits="userSpaceOnUse" xlink:href="#id0" x1="2435.87" y1="2694.12" x2="2435.87" y2="1903.12">
  </linearGradient>
  <linearGradient id="id5" gradientUnits="userSpaceOnUse" xlink:href="#id0" x1="1332.5" y1="2694.12" x2="1332.5" y2="1903.12">
  </linearGradient>
  <linearGradient id="id6" gradientUnits="userSpaceOnUse" x1="2011.45" y1="1694.13" x2="29.46" y2="1514.13">
   <stop offset="0" style="stop-opacity:1; stop-color:#016785"/>
   <stop offset="0.4" style="stop-opacity:1; stop-color:#80B3C2"/>
   <stop offset="1" style="stop-opacity:1; stop-color:white"/>
  </linearGradient>
  <linearGradient id="id7" gradientUnits="userSpaceOnUse" x1="4210.66" y1="674.61" x2="-597.77" y2="661.67">
   <stop offset="0" style="stop-opacity:1; stop-color:#016686"/>
   <stop offset="0.65098" style="stop-opacity:1; stop-color:#80B2C2"/>
   <stop offset="1" style="stop-opacity:1; stop-color:white"/>
  </linearGradient>
  <linearGradient id="id8" gradientUnits="userSpaceOnUse" x1="818.4" y1="1792.89" x2="875.21" y2="2604.07">
   <stop offset="0" style="stop-opacity:1; stop-color:#FC650F"/>
   <stop offset="1" style="stop-opacity:1; stop-color:#FFA20B"/>
  </linearGradient>
  <linearGradient id="id9" gradientUnits="objectBoundingBox" x1="96.1835%" y1="54.2144%" x2="0.0962747%" y2="43.3451%">
   <stop offset="0" style="stop-opacity:1; stop-color:#016686"/>
   <stop offset="1" style="stop-opacity:1; stop-color:white"/>
  </linearGradient>
  <linearGradient id="id10" gradientUnits="userSpaceOnUse" x1="2016.28" y1="2686.16" x2="48.06" y2="2638.36">
   <stop offset="0" style="stop-opacity:1; stop-color:#016785"/>
   <stop offset="0.180392" style="stop-opacity:1; stop-color:#80B3C2"/>
   <stop offset="1" style="stop-opacity:1; stop-color:white"/>
  </linearGradient>
  <linearGradient id="id11" gradientUnits="userSpaceOnUse" xlink:href="#id8" x1="368.08" y1="1481.93" x2="413.6" y2="2128.07">
  </linearGradient>
  <linearGradient id="id12" gradientUnits="userSpaceOnUse" xlink:href="#id8" x1="1349.34" y1="2084.85" x2="1412.55" y2="2983.07">
  </linearGradient>
  <linearGradient id="id13" gradientUnits="userSpaceOnUse" xlink:href="#id8" x1="3379.78" y1="1481.93" x2="3425.3" y2="2128.07">
  </linearGradient>
  <linearGradient id="id14" gradientUnits="userSpaceOnUse" xlink:href="#id8" x1="2951.19" y1="1792.89" x2="3008.82" y2="2604.07">
  </linearGradient>
  <linearGradient id="id15" gradientUnits="userSpaceOnUse" xlink:href="#id8" x1="2431.42" y1="2084.85" x2="2495.46" y2="2983.07">
  </linearGradient>
 </defs>
 <g id="Katman_x0020_1">
  <metadata id="CorelCorpID_0Corel-Layer"/>
  <g id="_1954430328368">
   <path class="fil0" d="M1992.04 427.52l1551.28 899.25c20.45,11.84 35.57,26.49 45.43,42.96 11.41,19 15.9,40.29 13.8,62.64 -1.99,21.1 -9.95,42.57 -23.54,63.32 -20.02,30.57 -53.02,60.7 -97.88,86.68l-1426.92 952.21c-62.77,36.38 -138.25,58.71 -209.29,65.36 -71.57,6.71 -139.13,-2.54 -185.36,-29.33l-1551.27 -1024.26c-20.47,-11.84 -35.57,-26.49 -45.43,-42.96 -11.4,-19 -15.9,-40.3 -13.8,-62.64 1.98,-21.1 9.94,-42.57 23.54,-63.33 20.05,-30.58 53.03,-60.69 97.88,-86.68l1426.91 -827.17c62.76,-36.39 138.26,-58.72 209.29,-65.38 71.57,-6.68 139.13,2.56 185.36,29.33zm1541 932.04l-1551.28 -899.24c-42.36,-24.55 -105.62,-32.87 -173.35,-26.55 -68.27,6.4 -140.72,27.8 -200.75,62.59l-1426.91 827.17c-41.15,23.85 -70.96,50.79 -88.55,77.62 -10.08,15.38 -15.9,30.33 -17.18,44.06 -1.17,12.47 1.49,24.6 8.15,35.71 7.19,12 18.93,23.12 35.39,32.64l1551.27 1024.25c42.37,24.54 105.62,32.89 173.35,26.55 68.29,-6.38 140.72,-27.78 200.76,-62.58l1426.91 -952.19c41.17,-23.85 70.99,-50.81 88.56,-77.62 10.07,-15.38 15.89,-30.33 17.18,-44.07 1.17,-12.46 -1.48,-24.59 -8.14,-35.7 -7.19,-12.01 -18.95,-23.12 -35.41,-32.64z"/>
   <path class="fil1" d="M2008.94 398.35l1551.28 899.24c12.37,7.17 23.26,15.27 32.62,24.11 9.95,9.41 18.25,19.72 24.83,30.73 7.59,12.64 12.93,26.05 15.97,39.89 3.06,13.75 3.85,28.25 2.43,43.21 -1.27,13.48 -4.43,27.04 -9.41,40.42 -4.89,13.17 -11.39,25.99 -19.4,38.22 -11.66,17.82 -27.22,35.55 -46.41,52.53 -17.79,15.78 -38.65,30.8 -62.31,44.54l-1427.43 952.52c-33.05,19.16 -69.26,34.66 -106.37,46.24 -38.23,11.93 -77.98,19.86 -116.78,23.46 -39.19,3.67 -77.48,2.88 -112.3,-2.63 -34.98,-5.56 -66.75,-15.83 -93,-31.04l-1552.27 -1024.86c-11.98,-7.03 -22.52,-14.93 -31.62,-23.51 -9.95,-9.41 -18.24,-19.73 -24.82,-30.73 -7.52,-12.55 -12.81,-25.93 -15.89,-39.91 -3.14,-13.74 -3.92,-28.16 -2.53,-43.07 1.27,-13.6 4.44,-27.16 9.41,-40.55 4.9,-13.18 11.4,-25.98 19.4,-38.22 11.68,-17.81 27.24,-35.54 46.43,-52.54 17.94,-15.89 38.96,-31 62.81,-44.83l1426.9 -827.18c33.05,-19.16 69.24,-34.64 106.37,-46.24 38.22,-11.94 77.98,-19.84 116.78,-23.48 39.16,-3.65 77.39,-2.84 112.2,2.65 35.01,5.53 66.8,15.8 93.11,31.03zm1507.2 990.39l-1551.28 -899.25c-16.91,-9.79 -38.69,-16.54 -63.55,-20.34 -27.66,-4.24 -58.31,-4.79 -89.86,-1.84 -32.18,3 -65.71,9.73 -98.45,19.94 -31.18,9.71 -61.28,22.55 -88.44,38.29l-1426.91 827.17c-18.37,10.64 -34.12,21.84 -47.07,33.19 -12.64,11.1 -22.74,22.48 -30.13,33.73 -3.79,5.8 -6.73,11.33 -8.71,16.43 -1.78,4.55 -2.86,8.72 -3.2,12.31 -0.24,2.61 -0.06,5.22 0.49,7.78 0.61,2.58 1.64,5.11 3.06,7.47 1.93,3.25 4.73,6.59 8.36,9.93 4.09,3.77 9.1,7.41 15.01,10.83l1552.19 1024.79c16.79,9.52 38.23,16.1 62.66,19.83 27.65,4.23 58.27,4.77 89.84,1.83 32.17,-3 65.7,-9.72 98.43,-19.93 31,-9.65 60.95,-22.4 87.96,-38l1427.42 -952.49c18.37,-10.64 34.12,-21.84 47.07,-33.19 12.67,-11.1 22.75,-22.47 30.12,-33.74 3.8,-5.79 6.73,-11.31 8.72,-16.42 1.77,-4.56 2.85,-8.71 3.19,-12.32 0.25,-2.58 0.07,-5.2 -0.51,-7.78 -0.56,-2.57 -1.57,-5.05 -3.02,-7.47 -1.93,-3.23 -4.73,-6.58 -8.37,-9.92 -4.08,-3.76 -9.11,-7.41 -15.02,-10.83z"/>
   <path class="fil2" d="M23.44 1024.38l3604.73 0 0 387.47c0,96.89 -79.27,176.14 -176.16,176.14l-3252.43 0c-96.88,0 -176.14,-79.25 -176.14,-176.13l0 -387.48z"/>
   <path class="fil1" d="M23.44 1007.48l3621.62 0 0 404.37c0,53.05 -21.72,101.32 -56.68,136.3 -35.04,35.02 -83.29,56.74 -136.37,56.74l-3252.43 0c-53.06,0 -101.31,-21.72 -136.28,-56.68 -35.03,-35.04 -56.76,-83.29 -56.76,-136.35l0 -404.38 16.9 0zm3587.83 33.8l-3570.93 0 0 370.58c0,43.79 17.93,83.63 46.76,112.48 28.85,28.84 68.69,46.75 112.48,46.75l3252.43 0c43.8,0 83.64,-17.91 112.49,-46.75 28.84,-28.85 46.77,-68.69 46.77,-112.49l0 -370.57z"/>
   <path class="fil3" d="M1992.04 427.52l1551.28 899.25c20.45,11.84 35.57,26.48 45.43,42.95 11.41,19.01 15.9,40.3 13.8,62.65 -1.99,21.1 -9.95,42.57 -23.54,63.32 -20.02,30.57 -53.02,60.7 -97.88,86.68l-1426.92 952.21c-62.77,36.39 -138.25,58.72 -209.29,65.36 -71.57,6.72 -139.13,-2.54 -185.36,-29.33l-1551.27 -1024.26c-20.47,-11.84 -35.57,-26.49 -45.42,-42.95 -11.41,-19.01 -15.91,-40.3 -13.81,-62.65 1.98,-21.1 9.94,-42.57 23.54,-63.32 20.05,-30.59 53.03,-60.71 97.88,-86.69l1426.91 -827.18c62.76,-36.38 138.26,-58.71 209.29,-65.36 71.57,-6.7 139.13,2.55 185.36,29.32z"/>
   <path class="fil0" d="M3582.77 938.41l-1596.46 -680.58c-43.6,-18.58 -108.7,-24.88 -178.4,-20.09 -70.26,4.84 -144.82,21.03 -206.61,47.37l-1468.46 626.04c-42.36,18.04 -73.03,38.43 -91.13,58.74 -10.37,11.64 -16.36,22.95 -17.69,33.35 -1.2,9.44 1.54,18.61 8.4,27.02 7.39,9.09 19.48,17.5 36.42,24.7l1596.45 775.2c43.6,18.58 108.7,24.89 178.4,20.09 70.27,-4.82 144.82,-21.02 206.6,-47.36l1468.48 -720.66c42.37,-18.05 73.06,-38.45 91.13,-58.74 10.37,-11.64 16.36,-22.96 17.68,-33.35 1.21,-9.44 -1.52,-18.62 -8.38,-27.03 -7.39,-9.08 -19.49,-17.49 -36.43,-24.7z"/>
   <path class="fil1" d="M1996.58 233l1593.65 680.59c21.01,8.97 36.55,20.05 46.68,32.52 11.72,14.38 16.33,30.5 14.17,47.41 -2.04,15.96 -10.21,32.21 -24.18,47.92 -20.57,23.14 -54.47,45.94 -100.56,65.61l-1465.89 720.67c-64.48,27.53 -142.03,44.43 -215.01,49.46 -73.52,5.09 -142.93,-1.92 -190.42,-22.2l-1593.64 -775.2c-21.03,-8.96 -36.55,-20.04 -46.67,-32.51 -11.72,-14.38 -16.34,-30.5 -14.19,-47.41 2.04,-15.97 10.22,-32.22 24.19,-47.93 20.59,-23.14 54.48,-45.94 100.55,-65.61l1465.89 -626.03c64.48,-27.54 142.04,-44.44 215.01,-49.48 73.52,-5.06 142.93,1.93 190.42,22.19z"/>
   <path class="fil0" d="M3104.79 945.44l-1162.15 -478.98c-31.74,-13.07 -79.12,-17.5 -129.86,-14.13 -51.15,3.4 -105.43,14.81 -150.4,33.34l-1068.96 440.58c-30.83,12.71 -53.16,27.05 -66.35,41.35 -7.54,8.18 -11.9,16.14 -12.87,23.46 -0.87,6.64 1.13,13.1 6.12,19.02 5.38,6.39 14.17,12.31 26.51,17.39l1162.13 545.55c31.74,13.07 79.13,17.51 129.87,14.14 51.15,-3.4 105.41,-14.79 150.4,-33.32l1068.97 -507.19c30.83,-12.69 53.18,-27.05 66.34,-41.33 7.54,-8.19 11.9,-16.16 12.86,-23.48 0.88,-6.64 -1.11,-13.1 -6.1,-19.01 -5.38,-6.4 -14.19,-12.32 -26.51,-17.39z"/>
   <path class="fil4" d="M1950.34 449l1162.13 478.97c15.33,6.3 26.67,14.12 34.05,22.89 8.54,10.12 11.91,21.46 10.34,33.36 -1.49,11.24 -7.46,22.68 -17.64,33.73 -15.01,16.28 -39.73,32.32 -73.33,46.17l-1068.98 507.18c-47.02,19.39 -103.56,31.28 -156.78,34.81 -53.62,3.59 -104.23,-1.35 -138.87,-15.62l-1162.13 -545.56c-15.33,-6.3 -26.65,-14.1 -34.03,-22.87 -8.54,-10.13 -11.91,-21.48 -10.34,-33.38 1.49,-11.23 7.44,-22.66 17.64,-33.72 15.01,-16.3 39.73,-32.33 73.32,-46.18l1068.96 -440.59c47.03,-19.37 103.58,-31.27 156.8,-34.81 53.6,-3.57 104.23,1.35 138.86,15.62z"/>
   <path class="fil4" d="M1950.34 449l1162.13 478.97c15.33,6.3 26.67,14.12 34.05,22.89 8.54,10.12 11.91,21.46 10.34,33.36 -1.49,11.24 -7.46,22.68 -17.64,33.73 -15.01,16.28 -39.73,32.32 -73.33,46.17l-1068.98 507.18c-47.02,19.39 -103.56,31.28 -156.78,34.81 -53.62,3.59 -104.23,-1.35 -138.87,-15.62l-1162.13 -545.56c-15.33,-6.3 -26.65,-14.1 -34.03,-22.87 -8.54,-10.13 -11.91,-21.48 -10.34,-33.38 1.49,-11.23 7.44,-22.66 17.64,-33.72 15.01,-16.3 39.73,-32.33 73.32,-46.18l1068.96 -440.59c47.03,-19.37 103.58,-31.27 156.8,-34.81 53.6,-3.57 104.23,1.35 138.86,15.62z"/>
   <path class="fil5" d="M1950.34 449l788.72 325.07c-381.26,10.69 -855.6,29.55 -1176.81,61.9 -347.51,35 -739.86,133.04 -1016.5,212.06l-6.62 -3.1c-15.33,-6.3 -26.65,-14.1 -34.03,-22.87 -8.54,-10.13 -11.91,-21.48 -10.34,-33.38 1.49,-11.23 7.44,-22.66 17.64,-33.72 15.01,-16.3 39.73,-32.33 73.32,-46.18l1068.96 -440.59c47.03,-19.37 103.58,-31.27 156.8,-34.81 53.6,-3.57 104.23,1.35 138.86,15.62z"/>
   <g id="_1954924383440">
    <g>
     <path class="fil6" d="M2227.58 1873.92l238.47 -178.84c0,0 226.56,250.38 107.32,572.31 -119.24,321.93 11.92,488.86 11.92,488.86l-259.34 158.73c-158.28,-114.92 -170.32,-398.81 -86.46,-558.15 119.23,-226.53 -11.91,-482.91 -11.91,-482.91z"/>
     <path class="fil7" d="M2220.38 1862.49l237.59 -178.19c5.65,-4.23 13.56,-3.36 18.15,1.81 0.66,0.72 231.98,256.38 109.93,585.93 -116.63,314.89 9.56,475.47 9.91,475.92 4.57,5.88 3.5,14.38 -2.38,18.95l-260.6 159.59c-4.79,2.92 -10.67,2.51 -14.95,-0.59 -77.29,-56.1 -121.07,-150.29 -136.71,-251.36 -17.61,-113.78 0.39,-236.9 46.24,-324 115.94,-220.3 -11.66,-469.78 -12.02,-470.5 -3.19,-6.27 -1.02,-13.89 4.84,-17.56zm243.55 -148.99l-219.42 164.57c23,50.54 115.29,279.15 6.92,485.05 -43.3,82.29 -60.27,199.08 -43.5,307.32 14.12,91.26 52.29,176.12 118.83,228.22l239.48 -146.58c-27.66,-44.94 -108.6,-211.11 -5.56,-489.34 103.16,-278.51 -58.24,-501.57 -96.75,-549.24z"/>
     <path class="fil8" d="M2766.49 1603.16l214.8 -161.09c0,0 204.06,225.52 96.66,515.5 -107.4,289.98 10.74,440.33 10.74,440.33l-233.6 142.98c-142.57,-103.51 -153.41,-359.22 -77.87,-502.75 107.39,-204.04 -10.73,-434.97 -10.73,-434.97z"/>
     <path class="fil9" d="M2759.28 1591.72l213.92 -160.42c5.72,-4.29 13.75,-3.34 18.33,2.03 4.41,4.92 208.29,234.1 99.1,528.89 -104.79,282.96 8.53,427.13 8.84,427.55 4.49,5.94 3.31,14.42 -2.64,18.91l-234.71 143.71c-4.78,2.92 -10.66,2.51 -14.95,-0.58 -69.92,-50.77 -109.53,-135.91 -123.67,-227.3 -15.91,-102.76 0.36,-213.97 41.79,-292.67 104.09,-197.8 -10.52,-421.92 -10.85,-422.56 -3.19,-6.27 -1.01,-13.88 4.84,-17.56zm219.87 -131.21l-195.75 146.8c21.5,47.6 102.94,252.46 5.76,437.11 -38.89,73.88 -54.12,178.76 -39.06,275.98 12.63,81.57 46.63,157.39 105.82,204.14l213.78 -130.83c-25.57,-42.12 -96.65,-191.81 -4.44,-440.79 91.94,-248.22 -50.04,-447.41 -86.11,-492.41z"/>
     <path class="fil10" d="M3231.46 1332.27l170.33 -127.74c0,0 161.83,178.84 76.66,408.78 -85.17,229.95 8.51,349.18 8.51,349.18l-185.24 113.38c-113.06,-82.08 -121.65,-284.86 -61.75,-398.67 85.16,-161.8 -8.51,-344.93 -8.51,-344.93z"/>
     <path class="fil11" d="M3223.37 1321.5l170.34 -127.75c5.78,-4.34 13.92,-3.32 18.47,2.19 8.13,9.18 164.77,190.29 78.95,422.02 -82.57,222.96 6.26,335.97 6.51,336.3 4.54,5.88 3.44,14.35 -2.44,18.9l-186.44 114.22c-4.79,2.92 -10.67,2.51 -14.95,-0.58 -56.11,-40.72 -87.86,-108.94 -99.19,-182.08 -12.7,-82.05 0.31,-170.92 33.42,-233.81 81.9,-155.6 -8.32,-332.01 -8.58,-332.51 -3.02,-5.91 -1.23,-13.05 3.91,-16.9zm176.25 -98.51l-151.33 113.5c18.47,41.67 79.88,202.1 3.62,346.99 -30.58,58.09 -42.53,140.61 -30.69,217.13 9.82,63.31 35.98,122.23 81.37,158.91l165.53 -101.32c-21.64,-37.03 -74.12,-155.78 -2.35,-349.54 71.13,-192.04 -35.49,-346.74 -66.15,-385.67z"/>
    </g>
    <g>
     <path class="fil12" d="M1424.03 1873.92l-238.46 -178.84c0,0 -226.56,250.38 -107.32,572.31 119.24,321.93 -11.92,488.86 -11.92,488.86l259.34 158.73c158.27,-114.92 170.31,-398.81 86.45,-558.15 -119.22,-226.53 11.91,-482.91 11.91,-482.91z"/>
     <path class="fil13" d="M1431.23 1862.49l-237.58 -178.19c-5.65,-4.23 -13.56,-3.36 -18.15,1.81 -0.66,0.72 -231.98,256.38 -109.93,585.93 116.63,314.89 -9.56,475.47 -9.91,475.92 -4.57,5.88 -3.5,14.38 2.38,18.95l260.6 159.59c4.79,2.92 10.67,2.51 14.95,-0.59 77.28,-56.1 121.06,-150.29 136.7,-251.36 17.61,-113.78 -0.39,-236.9 -46.24,-324 -115.93,-220.3 11.66,-469.78 12.02,-470.5 3.19,-6.27 1.02,-13.89 -4.84,-17.56zm-243.54 -148.99l219.41 164.57c-23,50.54 -115.28,279.15 -6.92,485.05 43.3,82.29 60.27,199.08 43.5,307.32 -14.12,91.26 -52.29,176.12 -118.82,228.22l-239.48 -146.58c27.66,-44.94 108.6,-211.11 5.56,-489.34 -103.16,-278.51 58.24,-501.57 96.75,-549.24z"/>
     <path class="fil14" d="M885.13 1603.16l-214.8 -161.09c0,0 -204.06,225.52 -96.66,515.5 107.4,289.98 -10.74,440.33 -10.74,440.33l233.6 142.98c142.57,-103.51 153.41,-359.22 77.87,-502.75 -107.39,-204.04 10.73,-434.97 10.73,-434.97z"/>
     <path class="fil15" d="M892.34 1591.72l-213.92 -160.42c-5.72,-4.29 -13.75,-3.34 -18.33,2.03 -4.41,4.92 -208.29,234.1 -99.1,528.89 104.79,282.96 -8.53,427.13 -8.84,427.55 -4.49,5.94 -3.31,14.42 2.64,18.91l234.71 143.71c4.78,2.92 10.66,2.51 14.95,-0.58 69.92,-50.77 109.53,-135.91 123.67,-227.3 15.91,-102.76 -0.36,-213.97 -41.79,-292.67 -104.09,-197.8 10.52,-421.92 10.85,-422.56 3.19,-6.27 1.01,-13.88 -4.84,-17.56zm-219.87 -131.21l195.75 146.8c-21.5,47.6 -102.94,252.46 -5.76,437.11 38.89,73.88 54.12,178.76 39.06,275.98 -12.63,81.57 -46.63,157.39 -105.82,204.14l-213.78 -130.83c25.57,-42.12 96.65,-191.81 4.44,-440.79 -91.94,-248.22 50.04,-447.41 86.11,-492.41z"/>
     <path class="fil16" d="M420.16 1332.27l-170.33 -127.74c0,0 -161.83,178.84 -76.66,408.78 85.17,229.95 -8.51,349.18 -8.51,349.18l185.24 113.38c113.06,-82.08 121.65,-284.86 61.75,-398.67 -85.16,-161.8 8.51,-344.93 8.51,-344.93z"/>
     <path class="fil17" d="M428.25 1321.5l-170.34 -127.75c-5.78,-4.34 -13.92,-3.32 -18.47,2.19 -8.13,9.18 -164.77,190.29 -78.95,422.02 82.57,222.96 -6.26,335.97 -6.51,336.3 -4.54,5.88 -3.44,14.35 2.44,18.9l186.44 114.22c4.79,2.92 10.67,2.51 14.95,-0.58 56.11,-40.72 87.86,-108.94 99.19,-182.08 12.7,-82.05 -0.31,-170.92 -33.42,-233.81 -81.9,-155.6 8.32,-332.01 8.58,-332.51 3.02,-5.91 1.23,-13.05 -3.91,-16.9zm-176.25 -98.51l151.33 113.5c-18.47,41.67 -79.88,202.1 -3.62,346.99 30.58,58.09 42.53,140.61 30.69,217.13 -9.82,63.31 -35.98,122.23 -81.37,158.91l-165.53 -101.32c21.64,-37.03 74.12,-155.78 2.35,-349.54 -71.13,-192.04 35.49,-346.74 66.15,-385.67z"/>
    </g>
   </g>
   <path class="fil18 str0" d="M1946.17 342.34l1468.53 579.65c66.73,26.33 41.69,76.78 -48.67,121.06l-1371.17 672.05c-90.31,44.26 -225.02,51.63 -289.42,20.36l-1468.52 -712.77c-64.46,-31.29 -45.1,-84.22 48.68,-121.08l1371.17 -538.9c93.78,-36.86 222.67,-46.69 289.4,-20.37z"/>
  </g>
 </g>
</svg>
