<?xml version="1.0" encoding="UTF-8"?>
<!DOCTYPE svg PUBLIC "-//W3C//DTD SVG 1.1//EN" "http://www.w3.org/Graphics/SVG/1.1/DTD/svg11.dtd">
<!-- Creator: CorelDRAW 2017 -->
<svg xmlns="http://www.w3.org/2000/svg" xml:space="preserve" width="31.377mm" height="31.377mm" version="1.1" style="shape-rendering:geometricPrecision; text-rendering:geometricPrecision; image-rendering:optimizeQuality; fill-rule:evenodd; clip-rule:evenodd"
viewBox="0 0 3137.7 3137.7"
 xmlns:xlink="http://www.w3.org/1999/xlink">
 <defs>
  <style type="text/css">
   <![CDATA[
    .str0 {stroke:#FEFEFE;stroke-width:25;stroke-miterlimit:22.9256}
    .fil1 {fill:#CC5819}
    .fil2 {fill:#FEFEFE}
    .fil0 {fill:#FF6E1F}
   ]]>
  </style>
 </defs>
 <g id="Katman_x0020_1">
  <metadata id="CorelCorpID_0Corel-Layer"/>
  <g id="_1954722011872">
   <g id="_1954923240896">
    <circle class="fil0" cx="1568.85" cy="1568.86" r="1568.89"/>
    <path class="fil1" d="M587.41 1973.68l1098.17 1159.74c811.96,-59.72 1452.16,-737.36 1452.16,-1564.56l-989.69 -877.42 -1560.64 1282.24z"/>
    <g>
     <path class="fil2" d="M1164.02 587.42l193.97 -48.55 174.08 380.74c-126.41,7.05 -243.18,50.19 -340.17,119.3l-27.88 -451.49z"/>
     <path class="fil2" d="M588.61 1161.14l102.83 -171.48 392.34 146.14c-79.97,89.5 -135.5,201.28 -156.21,324.86l-338.96 -299.52z"/>
     <path class="fil2" d="M587.41 1973.68l-48.54 -193.96 380.74 -174.08c7.05,126.4 50.18,243.17 119.29,340.16l-451.49 27.88z"/>
     <path class="fil2" d="M1161.13 2549.09l-171.48 -102.82 146.14 -392.34c89.5,79.96 201.28,135.5 324.87,156.2l-299.53 338.96z"/>
     <path class="fil2" d="M1973.68 2550.29l-193.97 48.55 -174.08 -380.74c126.41,-7.05 243.18,-50.19 340.17,-119.3l27.88 451.49z"/>
     <path class="fil2" d="M2549.09 1976.57l-102.83 171.48 -392.34 -146.14c79.97,-89.5 135.5,-201.28 156.21,-324.87l338.96 299.53z"/>
     <path class="fil2" d="M2550.29 1164.03l48.54 193.96 -380.74 174.08c-7.05,-126.4 -50.18,-243.17 -119.29,-340.16l451.49 -27.88z"/>
     <path class="fil2" d="M1976.57 588.61l171.48 102.83 -146.14 392.34c-89.5,-79.96 -201.28,-135.5 -324.87,-156.2l299.53 -338.97z"/>
    </g>
    <path class="fil2 str0" d="M1568.85 918.56c359.14,0 650.29,291.15 650.29,650.3 0,359.14 -291.15,650.29 -650.29,650.29 -359.14,0 -650.29,-291.15 -650.29,-650.29 0,-359.15 291.15,-650.3 650.29,-650.3zm0 401.56c137.37,0 248.74,111.36 248.74,248.74 0,137.37 -111.37,248.73 -248.74,248.73 -137.37,0 -248.74,-111.36 -248.74,-248.73 0,-137.38 111.37,-248.74 248.74,-248.74z"/>
   </g>
  </g>
 </g>
</svg>
