<?xml version="1.0" encoding="UTF-8"?>
<!DOCTYPE svg PUBLIC "-//W3C//DTD SVG 1.1//EN" "http://www.w3.org/Graphics/SVG/1.1/DTD/svg11.dtd">
<!-- Creator: CorelDRAW 2017 -->
<svg xmlns="http://www.w3.org/2000/svg" xml:space="preserve" width="31.377mm" height="31.377mm" version="1.1" style="shape-rendering:geometricPrecision; text-rendering:geometricPrecision; image-rendering:optimizeQuality; fill-rule:evenodd; clip-rule:evenodd"
viewBox="0 0 3137.7 3137.7"
 xmlns:xlink="http://www.w3.org/1999/xlink">
 <defs>
  <style type="text/css">
   <![CDATA[
    .fil5 {fill:#C5C6C6}
    .fil0 {fill:#EBECEC}
    .fil1 {fill:#B2B3B3;fill-rule:nonzero}
    .fil3 {fill:#FC7D05;fill-rule:nonzero}
    .fil4 {fill:url(#id0)}
    .fil6 {fill:url(#id1)}
    .fil2 {fill:url(#id2)}
   ]]>
  </style>
  <linearGradient id="id0" gradientUnits="userSpaceOnUse" x1="1562.42" y1="1162.68" x2="1197.42" y2="-564.32">
   <stop offset="0" style="stop-opacity:1; stop-color:#FFA340"/>
   <stop offset="1" style="stop-opacity:1; stop-color:#FEE0B3"/>
  </linearGradient>
  <linearGradient id="id1" gradientUnits="userSpaceOnUse" x1="1647.41" y1="399.02" x2="1686.41" y2="2706.29">
   <stop offset="0" style="stop-opacity:1; stop-color:#FEFEFE"/>
   <stop offset="0.560784" style="stop-opacity:1; stop-color:#D9DADA"/>
   <stop offset="1" style="stop-opacity:1; stop-color:#FEFEFE"/>
  </linearGradient>
  <linearGradient id="id2" gradientUnits="userSpaceOnUse" x1="1562.42" y1="1162.68" x2="2245.41" y2="3712.67">
   <stop offset="0" style="stop-opacity:1; stop-color:#FC7500"/>
   <stop offset="1" style="stop-opacity:1; stop-color:#FFD940"/>
  </linearGradient>
 </defs>
 <g id="Katman_x0020_1">
  <metadata id="CorelCorpID_0Corel-Layer"/>
  <g id="_1955906593696">
   <g id="_1954924368176">
    <path class="fil0" d="M1568.85 39.89c844.41,0 1528.96,684.54 1528.96,1528.96 0,844.41 -684.55,1528.96 -1528.96,1528.96 -844.42,0 -1528.96,-684.55 -1528.96,-1528.96 0,-844.42 684.54,-1528.96 1528.96,-1528.96z"/>
    <path class="fil1" d="M1568.85 -0.02c433.14,0 825.43,175.63 1109.32,459.55 283.91,283.88 459.54,676.18 459.54,1109.32 0,433.2 -175.63,825.43 -459.54,1109.35 -283.89,283.89 -676.12,459.52 -1109.32,459.52 -433.2,0 -825.44,-175.63 -1109.35,-459.52 -283.89,-283.92 -459.52,-676.15 -459.52,-1109.35 0,-433.2 175.63,-825.44 459.52,-1109.32 283.91,-283.92 676.15,-459.55 1109.35,-459.55zm1052.91 515.95c-269.43,-269.46 -641.71,-436.13 -1052.91,-436.13 -411.21,0 -783.49,166.67 -1052.95,436.13 -269.4,269.4 -436.1,641.71 -436.1,1052.92 0,411.18 166.67,783.48 436.1,1052.94 269.46,269.43 641.77,436.11 1052.95,436.11 411.2,0 783.51,-166.7 1052.91,-436.11 269.46,-269.46 436.14,-641.74 436.14,-1052.94 0,-411.21 -166.68,-783.49 -436.14,-1052.92z"/>
    <path class="fil2" d="M1568.85 180.34c766.84,0 1388.5,621.67 1388.5,1388.51 0,766.84 -621.66,1388.51 -1388.5,1388.51 -766.84,0 -1388.51,-621.67 -1388.51,-1388.51 0,-766.84 621.67,-1388.51 1388.51,-1388.51z"/>
    <path class="fil3" d="M1568.85 150.78c391.57,0 746.12,158.75 1002.72,415.35 256.6,256.6 415.35,611.14 415.35,1002.72 0,391.58 -158.75,746.12 -415.35,1002.72 -256.6,256.6 -611.15,415.35 -1002.72,415.35 -391.58,0 -746.12,-158.75 -1002.72,-415.35 -256.6,-256.6 -415.35,-611.14 -415.35,-1002.72 0,-391.58 158.75,-746.12 415.35,-1002.72 256.6,-256.6 611.14,-415.35 1002.72,-415.35zm960.92 457.15c-245.9,-245.9 -585.66,-398.03 -960.92,-398.03 -375.26,0 -715.02,152.13 -960.92,398.03 -245.9,245.9 -398.03,585.66 -398.03,960.92 0,375.26 152.13,715.02 398.03,960.92 245.9,245.9 585.66,398.02 960.92,398.02 375.26,0 715.02,-152.12 960.92,-398.02 245.89,-245.9 398.02,-585.66 398.02,-960.92 0,-375.26 -152.13,-715.02 -398.02,-960.92z"/>
    <path class="fil4" d="M1568.85 180.34c702.95,0 1283.85,522.45 1375.76,1200.23 -137.14,-57.14 -284.06,-101.34 -438.2,-130.58 -141.51,-26.81 -289.12,-41.06 -440.89,-41.06 -792.53,0 -1472.02,387.05 -1759.51,937.77 -80.65,-175.96 -125.67,-371.63 -125.67,-577.85 0,-766.84 621.67,-1388.51 1388.51,-1388.51z"/>
    <path class="fil5" d="M1052.4 731.09c80.61,-4.73 131.2,-40.92 184.76,-98.89 45.11,-48.81 125.94,-70.74 190.35,-71.48 95.02,-1.1 180.65,37.96 244.24,108.34 55.1,61.02 130.9,84.61 210.72,65.31 53.39,-12.92 121.88,-52 142.84,-105.78l19.57 -50.16 17.12 51.05c86.23,257.19 -279.54,380.41 -483.66,191.74 -43.69,-40.38 -89.87,-64.68 -149.94,-66.93 -54.27,-2.04 -112.6,13.07 -166.26,21.52 -73.81,11.65 -140.6,12.83 -213.56,-6.38l-118.39 -31.16 122.21 -7.18zm-239.78 1620.71l0 -127.15 56.26 0 0 -1339.43 240.4 0 0 1339.43 195.7 0 0 -532.92 95.19 0 0 -97.79 100.54 0 0 -107.54 100.5 0 0 -107.54 144.8 0 0 102.67 57.82 0 0 -102.67 144.83 0 0 102.67 62.02 0 0 -101.52 144.83 0 0 844.64 102.61 0 0 127.15 122.18 0 0 166.11 -1622.9 0 0 -166.11 55.22 0z"/>
    <path class="fil6" d="M1053.55 750.57c83.1,-4.88 138.18,-40.41 197.95,-105.13 65.87,-71.24 268.87,-114.88 405.76,36.69 136.91,151.57 347.15,53.77 386.23,-46.44 75.54,225.29 -250.65,357.23 -451.91,171.19 -173.23,-160.11 -305.82,4.82 -538.03,-56.31zm1307.24 1620.74l-122.18 0 0 -127.15 -102.61 0 0 -844.64 -105.81 0 0 101.52 -101.04 0 0 -102.67 -105.81 0 0 102.67 -96.84 0 0 -102.67 -105.78 0 0 107.54 -100.5 0 0 107.54 -100.54 0 0 97.79 -95.19 0 0 532.92 -24.48 0 -210.24 0 0 -1339.42 -201.38 0 0 1339.42 -56.26 0 0 127.15 -55.22 0 0 127.09 1583.88 0 0 -127.09z"/>
   </g>
  </g>
 </g>
</svg>
